<svg xmlns="http://www.w3.org/2000/svg" width="1117.43" height="255.4" viewBox="0 0 1117.43 255.4"><g id="レイヤー_2" data-name="レイヤー 2"><g id="レイヤー_1-2" data-name="レイヤー 1"><path d="M95.4,252a8.69,8.69,0,0,1-5.8-2.22c-8.28-7.29-16-15-24.41-23.63-2-2-1.59-5-1.32-6.89.06-.43.13-.93.14-1.17l.17-8.94,7.66,3.65c.35.16.71.3,1.07.44a12.66,12.66,0,0,1,3.9,2.16c1.93,1.71,3.8,3.49,5.6,5.22a105.92,105.92,0,0,0,9.33,8.27c.22.17.42.32.61.45.17-.44.37-1,.59-1.66,7.91-23.77,10.1-48.2,12.22-71.83l.12-1.29-11.75,7.56c-16.37,10.55-33.3,21.46-49.91,32-7,4.43-14.15,9-21.86,12.61A17.83,17.83,0,0,1,14,208.31a51.18,51.18,0,0,1-5.51-.39l-.74-.08c-3.58-.38-4.4-3.65-4.95-5.82-.11-.47-.24-1-.34-1.26L0,194.2l7.56-.79c.5-.06,1-.1,1.51-.15,1-.08,1.87-.16,2.7-.3s1.53-.23,2.25-.31a12.48,12.48,0,0,0,2.42-.41C39,178,62,163.33,84.17,149.14l9.74-6.22a9.25,9.25,0,0,0,.82-.64,20.69,20.69,0,0,1,2.37-1.73c9.51-5.67,14.33-13.25,15.19-24.11l-1.24.49c-5.75,2.27-11.7,4.61-17.61,6.84-1.5.56-3,1.15-4.52,1.73a164.11,164.11,0,0,1-17.47,6,21.75,21.75,0,0,1-5.42.77c-4.64,0-7.12-2-8.38-3.71-2.24-3-2.62-7.45-1.12-13.2L58.69,107l6.2,4.67a8.83,8.83,0,0,0,5.55,1.92c3.18,0,6.87-1.5,10.77-3.08,1.75-.71,3.56-1.45,5.41-2.08,9.2-3.14,18.47-6.83,27.95-10.65a2.16,2.16,0,0,0,.36-.26c1.83-10.07,3.45-20,5.16-30.56.14-.82.27-1.64.4-2.46q-7.44,2.34-14.88,4.74C93.46,73.15,80.9,77.17,68.43,80.67a27.36,27.36,0,0,1-7.51,1,65.89,65.89,0,0,1-10-1A6.38,6.38,0,0,1,46.31,77c-.54-1-2.21-4.56-.93-8.07C47,64.33,50.56,62.7,53.3,62.7a11,11,0,0,1,4.14,1c.31.12.63.25,1,.36a12.62,12.62,0,0,0,3.84.58,11.53,11.53,0,0,0,3.29-.45c19-5.84,37.72-11.93,59.91-19.26l.16-.75c1.58-7.66,3.22-15.59,4.08-23.23,0-.5.09-.91.11-1.26-.5.13-1.15.3-2,.53a15.5,15.5,0,0,1-3.39.52c-.29,0-.58,0-.87.08l-5.82.67,1.06-5.74c1.55-8.34,8.84-14.17,17.74-14.17h.6c4.43.13,8.12,1.85,10.38,4.84a12.35,12.35,0,0,1,1.93,10.21c-1.49,6.83-3,13.55-4.6,20.66-.19.8-.37,1.61-.55,2.41l3.3-.73c8-1.77,15.51-3.44,23.22-5a156.65,156.65,0,0,1,19-2.57c.29,0,.58,0,.88,0a13,13,0,0,1,9,3.49c3.62,3.64-1.42,11.07-3.17,12.85-1,1-2,2-3,3.17-3.78,4.06-8.07,8.67-13.39,11.32-9.56,4.75-19.54,8.35-29.19,11.83l-5.67,2a13.88,13.88,0,0,1-4.8.83,18.14,18.14,0,0,1-3-.27c-.66,4-1.3,7.94-1.94,11.85L135,90.93l2.23-.56c7-1.78,14.15-3.61,21.22-5.62a16.16,16.16,0,0,1,4.44-.64c4.47,0,7.67,2.06,10.23,3.72.88.57,1.72,1.11,2.52,1.53,5.22,2.68.38,12,.33,12.08-1.9,3.44-6.48,5-9,5a6.12,6.12,0,0,1-1.8-.26,32.55,32.55,0,0,0-9.66-1.38c-7.36,0-15.16,2.14-22.5,4.44a4.26,4.26,0,0,0-2.57,2.19,1.08,1.08,0,0,0,.07,1.23c4.65,6.26,1.27,12.5-.55,15.85-.61,1.11-1.25,2.11-1.87,3.07-.51.8-1,1.56-1.39,2.26-2.24,4.13-2,4.36,1.35,6.12l16.32,8.47c16.4,8.54,33.37,17.36,50.24,25.72,10.87,5.38,20.06,13.61,28.1,25.17,1.91,2.74,1.07,6.31.4,9.17a22.89,22.89,0,0,0-.48,2.35l-.67,5.72-5.62-.5c-.44,0-1-.05-1.44-.05h-1.22c-2.17,0-4.67-.12-6.78-1.46l-.91-.57c-3.58-2.22-8.93-5.54-8.46-13.53a12,12,0,0,0-3.08-2.38c-20.77-11.79-41.76-23.44-63.22-35.35-2.58-1.42-5.25-2.8-8-4.21-.39,4.39-.79,8.59-1.58,12.88-3.65,20-7.64,40.34-11.49,60l-1,5.36a29.14,29.14,0,0,1-2.56,6.86l-.07.16C104.09,248.87,99.84,252,95.4,252ZM140.47,58.81c-.33,1.79-.65,3.6-1,5.4,3.15-1.35,6.29-2.62,9.37-3.87a197.75,197.75,0,0,0,19.54-8.72c-8.31,1.8-17.32,4.05-27.51,6.86A4.55,4.55,0,0,0,140.47,58.81Z" style="fill:#fff"/><path d="M775.54,255.4a13.55,13.55,0,0,1-7.3-2.38,70.94,70.94,0,0,1-26.14-29.55,15.74,15.74,0,0,1-1.26-5.72c-.05-.63-.1-1.22-.18-1.73l-.53-3.29,8.5-6,2.71,2.31A87.52,87.52,0,0,1,762,220.63c3.54,4.32,6.94,8.47,11.14,11.83a.36.36,0,0,0,0-.11c6.21-37.31,13.56-81.55,20.94-126.72,1-5.82.55-6.3-5.39-6.3h-.32c-12.8.1-25.78,5.1-37.28,9.6-1.76,4.76-3.47,9.6-5.13,14.34l.19,0c5.25-.57,10.22-1.1,15.24-1.21.75,0,1.54,0,2.34,0,3.27,0,13.21,0,14.21,8.91.64,5.64-3.76,12.6-7.73,16.85-6.55,7-13.55,13.73-20.31,20.22l-2.4,2.31c1.54-.26,3.05-.5,4.57-.71a83,83,0,0,1,11.5-.89l1.69,0c4.27.12,7.33,1.5,9.11,4.08,2,2.89,2.17,7,.55,12.48l-2,6.81-5.72-2.94a25,25,0,0,0-11.83-2.56,93.75,93.75,0,0,0-14.65,1.63c-4.26.7-8.64,1.41-13.1,1.71l-6.78,41.29-18.78,4,.46-5.7c2.14-26.2,9.5-51.72,16.62-76.39.95-3.32,1.91-6.63,2.85-10,2.07-7.25,4.56-14.51,7-21.53q1.47-4.26,2.9-8.54c-2.23-7.73,2.91-13.66,6.39-17.68.77-.88,1.49-1.71,2.14-2.54,2.67-3.4,5.2-6.6,9.14-6.6a6,6,0,0,1,4.75,2.36c2.87-.79,5.74-1.6,8.54-2.39,8.8-2.5,17.89-5.07,26.93-6.73a34.45,34.45,0,0,1,6.21-.6c6.21,0,11.18,2,14.38,5.86,3.43,4.11,4.61,10.06,3.43,17.19-6.11,36.81-12.6,74.22-18.88,110.4l-4,23.39a45.39,45.39,0,0,1-2.57,8.54C784.56,254,778.7,255.4,775.54,255.4Zm-35.15-113c-1.68,5.65-3.33,11.37-4.94,17,2.44-2.19,4.94-4.34,7.36-6.42,3.91-3.37,7.61-6.55,11.15-10a21.24,21.24,0,0,0,2.34-2.82C751.06,140.86,745.69,141.56,740.39,142.36Z" style="fill:#fff"/><path d="M304.2,239.63a16.4,16.4,0,0,0-1.43-1.18c-2-1.54-4.78-3.66-4.23-7.37.89-6.11,2.37-12.2,3.79-18.09.4-1.68.81-3.35,1.2-5q2.31-9.9,4.67-19.77l-.18.14c-11.17,8.85-21.34,14.45-32,17.6a11.41,11.41,0,0,0-1.4.75,17.45,17.45,0,0,1-4.26,2,27.07,27.07,0,0,1-6.25,1c-3.35,0-4.65-1.62-5.16-3-.27-.73-2.53-7.21,1.09-12,12.21-16.1,24.39-31.69,36.19-46.33,3.32-4.13,6.86-8.13,10.27-12,4.58-5.19,8.91-10.09,12.84-15.33a48.29,48.29,0,0,0,5.15-9.46l-.8.32c-6.38,2.48-13,5.05-19.53,7.43l-2,.74c-5,1.85-10.21,3.76-15.58,4.38a12.78,12.78,0,0,1-1.64.1c-3.86,0-7.25-1.52-10.24-2.86l-1.17-.52a4.78,4.78,0,0,1-2.76-3.68,11.18,11.18,0,0,1,1.4-7.81,12.42,12.42,0,0,1,9-5,5.59,5.59,0,0,1,2.12.39,13.77,13.77,0,0,0,5.19,1c4.62,0,9.52-2.17,14.72-4.47,1.78-.79,3.62-1.61,5.49-2.35,3.24-1.28,6.4-2.73,9.75-4.26s6.69-3,10.14-4.42c1.4-.56,1.5-.68,1.78-2.13,3.23-17,6-31,8.68-43.88.89-4.27.06-5.45-2.12-6.5-2.44-1.17-3.27-3.55-3.87-5.29a11.62,11.62,0,0,0-.46-1.19L329.82,26l6.7-2c.4-.12.92-.32,1.46-.53a15.64,15.64,0,0,1,5.65-1.36,7.87,7.87,0,0,1,.84,0c9.47.95,14.13,7.82,12.47,18.38s-3.68,21.1-5.65,31.36c-.57,3-1.15,6-1.71,9a28,28,0,0,1,9.36-1.42c1.17,0,2.32,0,3.48.08s2.05.08,3.07.08c.75,0,1.42,0,2-.07l4.8-.37-.17,4.72c-.16,4.16-.3,8.09-3,11.18-2.86,3.27-6.92,3.77-10.85,4.26-.66.08-1.31.19-1.91.32-4.91,1-8.79,1.93-10.34,3.26s-2.55,4.41-4,9.18c-3,10.17-5.55,20.64-8,30.76q-.72,2.94-1.45,5.9L347,138l6.56,7.16-2,3.27c-.28.45-.52.93-.77,1.4a19.87,19.87,0,0,1-3.45,5l-.88.87c-4.83,4.8-9.83,9.77-15.28,14.24a8.53,8.53,0,0,0-3.61,5.94c-2.84,16.45-6.19,34.27-10.53,56.08-.61,3.05-3.07,5-4.7,6.3-.38.31-.81.65-1,.85l-3.89,3.81Zm9.61-86.45c-7.25,8.3-14.64,16.79-21.67,25.49,7.05-4.77,13.47-9.14,19.61-13.36C312.46,161.26,313.13,157.25,313.81,153.18Z" style="fill:#fff"/><path d="M905.09,216.49c-3.92-.12-5.93-1.82-6.93-3.22-1.52-2.14-1.81-5-.87-8.51,3-11.14,5.75-22.52,8.44-33.52l1-3.89c-10.4,7.38-21.75,12-32.78,16.56l-3.57,1.46a8.8,8.8,0,0,1-3.45.65c-1.13,0-4.91-.22-6.3-3.14-.75-1.58-2.3-5.68-.44-9.66a38.34,38.34,0,0,1,5.89-8.4l.48-.58,22-25.93c10-11.76,20.26-23.88,30.4-35.89-2.06.83-4.13,1.66-6.16,2.51-3.88,1.61-7.83,3.32-11.65,5-8,3.45-16.24,7-24.56,10a19.8,19.8,0,0,1-6.62,1.4,7.35,7.35,0,0,1-6.13-2.69c-2.42-3.1-1.78-7.78-1-11.52l1.08-4.9,4.87.18c.36,0,.72,0,1.08,0,8.64,0,16.93-3.79,25.7-7.8,4.24-1.93,8.62-3.93,13.13-5.53a55.56,55.56,0,0,0,5.13-2.25A46,46,0,0,1,923,83.28c3.95-.94,5.77-2.26,6.81-8.06,2-11.2,4.54-22.53,7-33.49l.51-2.29c.63-2.84.15-3.25-1.34-4-2.61-1.3-3.41-4-4-6a13.48,13.48,0,0,0-.49-1.48l-2.7-6.22,7.34-1.27c.51-.09,1.14-.26,1.81-.43a19.57,19.57,0,0,1,5-.86,8.93,8.93,0,0,1,2.24.27c7.77,2,11.44,10,9.33,20.46-1.77,8.78-3.76,17.66-5.69,26.26q-1,4.35-1.94,8.69a53.91,53.91,0,0,1,5.46-1.25,9.61,9.61,0,0,1,1.51-.12,13.67,13.67,0,0,1,4.62,1c.48.17.93.33,1.29.42l5.73,1.4L962,81.83c-.22.35-.5.91-.77,1.45-1,2-2.33,4.71-5.16,6.3-4,2.26-8.08,4.11-12.4,6.07L941,96.84l-.16.52c-.78,2.71-1.68,5.78-2.48,8.83-1.56,5.94-3.09,11.88-4.67,18,3.95-4.23,8-8.61,13.47-11.67l3.38-1.9,6.68,6.46-2.17,3.48c-.31.48-.59,1-.87,1.49a24.18,24.18,0,0,1-3.24,4.78c-3.09,3.37-6.27,6.73-9.33,10-3.9,4.13-7.92,8.4-11.76,12.65a11.54,11.54,0,0,0-2.65,4.39c-1.88,8.51-3.7,17.18-5.47,25.56-2,9.38-4,19.08-6.14,28.63-.89,4-6.3,8.41-10.34,8.41h-.19ZM894,155.62c2.7-1.76,5.47-3.52,8.33-5.13,7.4-4.17,10.62-8.75,11.09-15.82q0-.67.12-1.35Z" style="fill:#fff"/><path d="M974.81,160.31a27.45,27.45,0,0,1-4.57-.38c-2.23-.37-7.64-1.68-9.68-5.77a5.11,5.11,0,0,1-.52-2.59,9.71,9.71,0,0,1-4.71,1.45q-.35,0-.66,0a8.17,8.17,0,0,1-6.82-7.52,21.07,21.07,0,0,1,.8-5.6c.68-2.83.69-3.46.06-4.2-2.81-3.29.57-7.86,3.82-11.47a20.64,20.64,0,0,1,3.15-2.75c.41-.32,1-.79,1.25-1,1.2-1.92,2.35-3.88,3.48-5.9-1,.28-2.1.55-3.16.78a15.52,15.52,0,0,1-3.28.38c-5.92,0-9.4-4.09-8.85-10.42.26-3,2.78-5.55,3.55-6.26a7.46,7.46,0,0,1,5-2.25h.37c5.91,0,11.68-2.54,17.79-5.22a101.09,101.09,0,0,1,10.87-4.29c6.78-2.12,9.07-5.21,9.41-12.73a48,48,0,0,1,.76-6.28c-3.29,1.24-6.48,2.39-9.77,3.3a60.45,60.45,0,0,1-13.46,2h-.61a7.91,7.91,0,0,1-6.65-3c-1.51-2.09-1.83-5.06-.9-8.36C963.43,55.39,969,54.49,972,54l.53-.09a172,172,0,0,0,21.27-5.45l3-.91.76-2.81c1.59-5.93,3.23-12.06,4.38-18,.5-2.64.08-3.34.06-3.37h0a2.45,2.45,0,0,0-.94-.12,8,8,0,0,0-1,.07,5.32,5.32,0,0,1-.81.06,8.19,8.19,0,0,1-6.11-3.18,4.87,4.87,0,0,1-.55-4.31,13.91,13.91,0,0,1,5.1-7,17.44,17.44,0,0,1,9.54-3,11.38,11.38,0,0,1,11.85,11.06,56.21,56.21,0,0,1-.86,12.54l.61-.93,4.13,2.37c1.15.66,2.33,1.29,3.5,1.92a60.56,60.56,0,0,1,8.9,5.43c2.09,1.63,2.68,4.47,1.63,7.8-1.22,3.87-4.85,8.68-9.17,10-2.08.61-4.23,1.06-6.31,1.48-3.26.67-7.72,1.59-9,3-1.13,1.21-1.51,5.63-1.76,8.56-.18,2.09-.36,4.25-.75,6.34l-.12.63c2.28-.76,4.5-1.49,6.73-2.19l.81-.25a22.81,22.81,0,0,1,6.92-1.41h.53c2.74.12,8.91,2.44,7.91,7.45-.56,2.79-2.86,7.58-6.9,9.34s-8.27,3.13-12.31,4.43c-2.4.78-4.66,1.51-6.87,2.32-10.68,3.89-18.66,9-24.37,15.69l.47-.2c6.65-2.81,13.51-5.72,20.3-8.53a15.07,15.07,0,0,1,5.71-1.24,9.63,9.63,0,0,1,8.51,4.79c1.34,2.15,5.42,8.67-.56,16-2.12,2.6-4.32,5.16-6.51,7.66l1.88-.88,1.77,3.88a10.32,10.32,0,0,1,.16,8.75,13.46,13.46,0,0,1-7,6.65c-7.88,3.68-16.29,7.56-24.78,10.83A20.74,20.74,0,0,1,974.81,160.31Zm-.72-20.13a5.84,5.84,0,0,0,1.41,1.47,22.72,22.72,0,0,0,2.85-2.41l.78-.72c5.52-5.09,10.32-9.53,14.94-14-7.22,3.33-14.89,7-23.25,11.21Z" style="fill:#fff"/><path d="M1048.28,244.64c-3,0-6.16-1.22-9.72-3.74-5.77-4.08-11.73-8.12-17.5-12-5.95-4-12.11-8.22-18.09-12.46a16,16,0,0,1-4.4-5.46c-.4-.69-.77-1.34-1.15-1.88L995.28,206l7.61-8.24,3.35,1.59c.5.23,1,.44,1.53.66a21.28,21.28,0,0,1,4.37,2.27c2.88,2.08,5.75,4.25,8.53,6.34,3.71,2.8,7.55,5.69,11.4,8.39a49.7,49.7,0,0,0,9.31,5,20.29,20.29,0,0,0,2.67,1,26.38,26.38,0,0,0,1.06-3.11c5.73-19.83,8.22-39.54,10.06-57.89,1.54-15.33,4-30.89,6.36-45.95,1-6.19,2-12.59,2.91-18.88-3.15,1.29-6.2,2.51-9.31,3.61l-2.72,1a184.52,184.52,0,0,1-19.37,6,22.33,22.33,0,0,1-5.07.69c-2.85,0-5-.9-6.44-2.68-2.36-3-1.88-7.34-1-11.64l1.07-5.32,5.21.53a28.29,28.29,0,0,0,3.07.16c8.14,0,16.23-3.15,24.79-6.48,3.88-1.52,7.89-3.08,12-4.35a5,5,0,0,0,.92-1c3.2-16,6.2-32.37,8.92-48.55.1-.61.33-2,.47-3.13-1.12.18-2.42.47-3.34.67a9.36,9.36,0,0,1-2,.2l-1,0c-.28,0-.61,0-1,0h-6.26l2.39-6.1c3.07-7.87,10-12.95,17.55-12.95a16.63,16.63,0,0,1,2.9.26c8.72,1.55,12.1,7.13,10,16.57-2.82,12.86-5.41,25.46-8.16,38.8q-.91,4.46-1.84,8.94l14.35-3.83c.22,0,.45-.13.67-.2a12.72,12.72,0,0,1,3.84-.73,7.35,7.35,0,0,1,1.06.07c.56.08,1.21.15,1.87.21,3.93.39,8.38.84,9.18,4.89.67,3.42-.16,8.11-7.88,11a13,13,0,0,0-1.46.61c-7.42,4.59-14.58,5.33-22.5,5.78a5.7,5.7,0,0,0-2,.35,7.19,7.19,0,0,0-.66,2.59c-3.4,27.26-7.53,59.53-12.4,92.28-1.93,13-4.83,26.11-7.63,38.8l-1.29,5.87C1058.81,242.1,1052.83,244.64,1048.28,244.64Z" style="fill:#fff"/><path d="M668,146.12a6.62,6.62,0,0,1-4.58-2c-.13-.11-.25-.23-.39-.33l-4-2.67,3.51-4.31c.15-.18.27-.39.41-.59a11,11,0,0,1,4.22-4.1C693.93,119,713.45,96.79,730.4,75.56c-3.55,1.14-7,2.23-10.59,3.24a201.4,201.4,0,0,1-22.33,5.32,15,15,0,0,1-2.34.18,21.92,21.92,0,0,1-9.63-2.57C682,80,681.19,74,683.06,70.31c1.72-3.39,6.66-5.93,9.92-5.93a5.67,5.67,0,0,1,2.22.42,10.16,10.16,0,0,0,4,.75c2.76,0,5.82-.88,9.06-1.8l1.7-.48c13.71-3.81,27.43-8.05,37.84-11.31a4.16,4.16,0,0,0,1.39-1.18c5.77-8.77,11.91-18.37,18.77-29.36,2.07-3.32,1.83-4.67.54-6.26-2.65-3.29-.53-9.64,2-12.4A9.94,9.94,0,0,1,777.74,0,8.85,8.85,0,0,1,783,1.48c5.67,4.36,7.13,11.17,3.89,18.22a175.55,175.55,0,0,1-8.74,16.41c-1.8,3-3.69,6-5.66,9l.44-.09c8.06-1.76,15.67-3.43,23.4-5a106.35,106.35,0,0,1,21-2.2,85.35,85.35,0,0,1,22.73,3,13.92,13.92,0,0,1,8.22,6.24c1.36,2.41.87,5.27.51,7.37-.11.62-.21,1.21-.24,1.64l-.36,5-5,.47a16.28,16.28,0,0,0-1.61.27,19,19,0,0,1-3.84.5,7.55,7.55,0,0,1-3.52-.78c-6.16-3.18-13.11-4.72-21.27-4.72-9.14,0-18.62,1.86-29.18,4.11a235.14,235.14,0,0,0-23.53,6.1,12.72,12.72,0,0,0-5.53,3.87c-14.87,20.1-33.4,43.1-58.09,61.26a151.17,151.17,0,0,1-16.8,10.26l-2.66,1.47a20.56,20.56,0,0,1-8.72,2.19H668Z" style="fill:#fff"/><path d="M628.26,230.21a5.09,5.09,0,0,1-2.25-.5c-3-1.48-6-5.06-5.93-9a147.65,147.65,0,0,1,2-21.07c5-29.39,12.63-60.35,24.63-99.9-6.69,6.26-13.07,12.21-19.65,18.1-6,5.32-12.19,10.15-18.59,15a17.75,17.75,0,0,1-9.41,3.69h-.41c-3.42,0-5.88-1.47-6.74-4-.51-1.51-.83-4.6,2.69-8.45a34.94,34.94,0,0,1,3.61-3.28l1.21-1c24.43-21.11,48-42.08,68-66.43a107.68,107.68,0,0,0,11.74-17.7c3-5.67,2.58-7.93-2.48-12.08-2.7-2.21-4.44-7.39-2.63-11.3s5-6.08,8.79-6.08a11.83,11.83,0,0,1,5.67,1.64c9.32,5.08,12.74,13.66,9.88,24.82C694.76,46.88,686,58.19,677.86,67.38c-3.29,3.73-6.64,7.31-10.18,11.11l-.87.92c2.56,3.54,1.26,8.41.53,11.16-.12.43-.23.86-.33,1.28-7.77,31.5-15.91,64.63-24.25,98.64a43.74,43.74,0,0,1,6.78-9.16l12-12-3.73,15.56c-.13.55-.24,1.18-.35,1.85a19.72,19.72,0,0,1-1.9,6.34c-6.19,11.52-11.79,21.51-17.13,30.54C636.61,226.68,631.79,230.21,628.26,230.21Z" style="fill:#fff"/><path d="M445.05,220.37c6.52-10.52,8.18-19.49,5.07-27.84a16.3,16.3,0,0,1-2,.9c-28.95,10.63-53,15.65-75.76,15.81h-.26A42.24,42.24,0,0,1,361,207.7c-4.35-1.2-6.84-3.44-7.43-6.66s.81-6.55,4.08-10.11c8.51-9.24,17.44-18.35,26.06-27.15l2.58-2.63c2.47-2.53,5-5,7.51-7.39,3.78-3.65,7.35-7.09,10.71-10.78.71-.78,1.44-1.55,2.18-2.33,4.74-5,7.39-8,6.9-12.61a6.38,6.38,0,0,1,1.67-4.77c1.3-1.58,4.32-4.09,7.32-4.53a7.93,7.93,0,0,1,1-.07c2.94,0,8.13,2.36,7.59,6.85-.07.59-.13,1.18-.2,1.77-.41,3.94-.88,8.41-3.42,12.41a101,101,0,0,1-13.71,16.46c-8.83,8.84-17.92,17.66-26.72,26.19-2.95,2.87-5.91,5.73-8.86,8.61,20.2-.78,41.14-4.57,66.16-12-.34-.56-.66-1.11-1-1.66-3.7-6.17-7.19-12-10.78-17.8l-.21-.33c-1.16-1.87-2.93-4.69-1.65-8.3a10.06,10.06,0,0,1,5-5.44,10.91,10.91,0,0,1,5.07-1.17c1.16,0,5.08.19,7.1,2.73,13.42,16.91,20.51,32.94,22.31,50.44.86,8.37-2.13,16.53-8.63,23.61-3.17,3.45-7.52,5-11.76,6.18l-11,3Z" style="fill:#fff"/><path d="M936.12,222.82a8.87,8.87,0,0,1-2.54-.33c-2.57-.74-6.32-1.82-7.17-5.34-.91-3.8,2.26-8.6,4.9-10.6,5.66-4.28,12.26-9.19,19.07-13.41,6.55-4,13.22-8,19.79-11.91l-.86.34c-4.44,1.79-9,3.63-13.65,5.25a29.91,29.91,0,0,1-10,1.5c-.65,0-1.29,0-1.92,0-9.48-.35-8.72-8.18-8.4-11.53l.56-5.83,5.74.51c.87.08,1.77.12,2.67.12,8.19,0,16.23-3.24,24.75-6.68A137,137,0,0,1,985,159.2a138.52,138.52,0,0,1,19-3.95,16.55,16.55,0,0,1,2.07-.13c4,0,7.05,1.66,8.25,4.57.73,1.78,1.38,5.57-2.56,10.89a46.52,46.52,0,0,1-12.83,11.66c-7.94,4.79-16.09,9.39-24,13.84-3.07,1.73-6.21,3.5-9.33,5.28A276.18,276.18,0,0,0,1014.07,183a16.36,16.36,0,0,1,5.37-1.41c.45-.06.91-.12,1.35-.21l9.25-1.87-4.65,8.55c-.2.36-.41.83-.64,1.33a16.22,16.22,0,0,1-3.59,5.51,35.37,35.37,0,0,1-8.3,5.48c-25.47,12.74-49.49,20-73.44,22.18l-.8.09A20.23,20.23,0,0,1,936.12,222.82Z" style="fill:#fff"/><path d="M463,129.5a12.49,12.49,0,0,1-6.09-1.89c-.52-.28-1-.54-1.43-.71l-3-1.25,1.57-9,17.34-3.68c-.21-.33-.41-.65-.63-.94C461.1,98.63,448,88.18,431.86,80.94c-2.6-1.17-4.2-3.24-5.61-5.07-.52-.66-1-1.29-1.48-1.79l-7.66-8.14,12.21-.56c.79,0,1.73-.17,2.73-.31a32.57,32.57,0,0,1,4.56-.42,11.26,11.26,0,0,1,4.4.78c18.64,7.74,33.46,19.47,44.05,34.84a48.85,48.85,0,0,1,6.59,14.42c1,3.45-1.74,7.73-2.6,9-1.74,2.5-3.7,3.95-5.82,4.31a133.27,133.27,0,0,1-20.09,1.54Z" style="fill:#fff"/><path d="M362.31,137q-1.05,0-2.1,0l-1.89,0h-7.77l4.35-7.07c.27-.44.56-1,.87-1.6a18.81,18.81,0,0,1,4.09-5.72c4-3.54,8.12-7,12.1-10.4,4.71-4,9.57-8.12,14.2-12.29.44-.4.9-.8,1.36-1.2,4.28-3.78,5.85-5.49,5.4-8.48-.59-3.89,3.52-8,6.62-9.11a7.33,7.33,0,0,1,2.47-.43c2.21,0,5,1,6.24,3.24A19.36,19.36,0,0,1,410,88.93c.16.64.33,1.33.53,2.06l.64,2.23-1.5,2.16c-.71,1-1.39,2.13-2.12,3.3a43.48,43.48,0,0,1-6.49,8.66c-7.3,7.06-15,13.9-22.37,20.52l-6.28,5.63a12.59,12.59,0,0,1-6.51,3.3A32.09,32.09,0,0,1,362.31,137Z" style="fill:#fff"/><path d="M1037.46,148c-.59-8.62-5.65-9.85-15.29-11.43-1-.17-2-.33-3-.51-.26,0-.71-.08-1.14-.12-2-.16-5.34-.43-7-3.29-1.14-1.89-1.18-4.33-.15-7.25,1.77-5,5.6-8,10.25-8a13.94,13.94,0,0,1,5.32,1.18c1.41.57,2.84,1.13,4.27,1.69,6,2.34,12.17,4.77,17.6,8.37,4.3,2.86,5.07,6.46,5,9-.18,4.2-2.79,8.49-7.77,12.74l-7.39,6.32Z" style="fill:#fff"/></g></g></svg>